<?xml version="1.0" standalone="no"?><!DOCTYPE svg PUBLIC "-//W3C//DTD SVG 1.1//EN" "http://www.w3.org/Graphics/SVG/1.1/DTD/svg11.dtd"><svg t="1499756417828" class="icon" style="" viewBox="0 0 1024 1024" version="1.1" xmlns="http://www.w3.org/2000/svg" p-id="4325" xmlns:xlink="http://www.w3.org/1999/xlink" width="32" height="32"><defs><style type="text/css"></style></defs><path d="M514.060427 996.697167c-65.454758 0-128.957047-12.821003-188.740642-38.107923-57.740052-24.421202-109.594047-59.381435-154.12117-103.909581-44.527123-44.527123-79.487356-96.380094-103.908558-154.119123-25.285896-59.782571-38.1069-123.282814-38.1069-188.734502 0-65.453734 12.821003-128.955001 38.1069-188.738595 24.422226-57.740052 59.381435-109.594047 103.908558-154.12117 44.527123-44.528146 96.381118-79.488379 154.12117-103.909581C385.10338 39.768749 448.604646 26.946722 514.060427 26.946722c65.452711 0 128.952954 12.821003 188.736549 38.107923 57.740052 24.422226 109.594047 59.382459 154.120147 103.909581 44.528146 44.527123 79.489402 96.382141 103.911628 154.12117 25.286919 59.783595 38.107923 123.285884 38.107923 188.738595 0 65.451688-12.821003 128.951931-38.107923 188.735525-24.422226 57.739029-59.383482 109.592001-103.911628 154.1181-44.528146 44.528146-96.381118 79.488379-154.120147 103.909581C643.012358 983.876164 579.512115 996.697167 514.060427 996.697167zM514.060427 45.366234C256.853437 45.366234 47.600623 254.619048 47.600623 511.826038c0 257.201873 209.252815 466.452641 466.458781 466.452641 257.204943 0 466.456734-209.249745 466.456734-466.452641C980.517161 254.619048 771.264347 45.366234 514.060427 45.366234z" p-id="4326" fill="#cdcdcd"></path><path d="M132.084783 497.966379l43.770899 22.509666c0 0 19.914562 11.406794 30.417777-9.901511l108.357893-226.625484c0 0 10.254551-19.358907-6.501064-28.462239l-47.778166-23.317055c0 0-14.810311-8.252964-24.464181 9.155521-0.297782 7.003508-111.207801 230.92644-111.207801 230.92644S117.624443 490.608807 132.084783 497.966379L132.084783 497.966379zM846.618569 520.974395l44.671409-20.558222c0 0 21.364587-8.655124 11.05887-30.113855L790.88829 245.230214c0 0-8.902764-19.960611-26.414603-12.45773l-47.774073 23.161512c0 0-15.659655 6.5553-7.956206 24.865317 5.352915 4.600785 113.113197 230.125191 113.113197 230.125191S831.911612 527.782451 846.618569 520.974395L846.618569 520.974395zM238.090095 520.228405l14.759145-31.267121 51.777247 65.383126c0 0 33.669844-7.702426 45.475727 13.359262 0 0 11.104919 12.803607 6.251378 36.96796 0 0 6.956436 5.053086 7.501858 8.207939 0 0 23.167652-5.603625 37.123502 10.853186 0 0 12.8077 10.204409 11.355629 30.118971 0 0 9.205663 3.950985 11.106965 9.402137 0 0 22.760376-5.649674 33.819247 7.656377 0 0 13.506619 12.607132 12.503778 27.365254l21.159926 15.458063c0 0 19.713994 1.651616 22.862707 17.058514l18.960841 14.007015c0 0 30.315446 12.005428 32.018228-18.308995l-71.187319-54.232159c0 0-8.357342-21.859867 17.758456-18.458397l106.107643 74.739215c0 0 17.358343 7.40362 27.864628-9.05319 0 0 10.205433-14.207583-4.307096-29.614481l-112.859417-81.546248c0 0-9.956769-22.811542 15.659655-21.061688l133.922129 94.752014c0 0 19.007913 7.554046 27.01426-6.602372 0 0 10.854209-14.156418 0-28.765137L556.909327 538.789133c0 0-8.902764-25.868157 18.762319-19.162432l152.430668 108.556415c0 0 23.065322 7.256264 33.319873-11.553127 0 0 13.056364-20.212344-4.451382-36.869722L541.35098 391.657144c0 0-40.069601-19.158339-63.981197 20.913309 0 0-4.204765 65.281819-76.739778 77.18901 0 0-49.479925-3.802606-37.971823-36.268018 0 0 14.507412-19.209504 13.255908-59.682287 0 0 1.650593-29.016871 21.762653-53.779857l-77.642334 0 17.058514-35.368532 117.265774 0c0 0 48.174186-27.314089 84.493369-24.76708 0 0 47.379077 2.552126 60.084447 9.807367 0 0 62.732763 20.058848 90.850148 15.35471l104.954377 217.524199-16.661472 38.016849c0 0 30.717605 31.57002 8.05342 69.839625-6.302543 12.855796-22.511713 25.26236-48.973388 26.460652 0 0 4.050246 25.816992-14.510482 40.374546 0 0-13.657045 18.710131-46.725184 13.554714 0 0 1.90335 22.815635-20.007683 37.9708 0 0-26.065655 22.414499-66.336848-4.89959 0 0-6.40078 25.662473-38.572504 30.91715 0 0-23.460318 3.648087-37.116339-9.56075 0 0-24.567535 46.276976-59.531861 20.213367 0 0-22.163789-18.36016-6.602372-44.322461 0 0-29.816073 47.12632-65.23577 11.706623 0 0-19.661805-14.758122-1.502213-45.675272 0 0-28.112268 32.018228-59.07956 3.001357 0 0-21.112853-17.259082-4.253884-49.375547 0 0-28.765137 34.065863-62.281485 1.599428 0 0-14.058181-12.957103-5.953595-41.773406l32.41834-44.322461L238.090095 520.228405 238.090095 520.228405zM238.090095 520.228405" p-id="4327" fill="#cdcdcd"></path></svg>