<?xml version="1.0" standalone="no"?><!DOCTYPE svg PUBLIC "-//W3C//DTD SVG 1.1//EN" "http://www.w3.org/Graphics/SVG/1.1/DTD/svg11.dtd"><svg t="1490092417147" class="icon" style="" viewBox="0 0 1024 1024" version="1.1" xmlns="http://www.w3.org/2000/svg" p-id="2075" xmlns:xlink="http://www.w3.org/1999/xlink" width="16" height="16"><defs><style type="text/css"></style></defs><path d="M510.546905 63.815421c-246.732427 0-446.708971 199.976544-446.708971 446.708971S263.813454 957.234387 510.546905 957.234387 957.255877 757.257843 957.255877 510.525416 757.279333 63.815421 510.546905 63.815421zM474.339262 227.843218c8.136308-8.724709 19.194154-13.087063 33.154098-13.087063 30.238698 0 45.369304 16.875343 45.369304 50.603515 0 12.799514-0.87288 36.942377-2.617617 72.415286-4.078899 58.168818-9.895371 146.874115-17.449417 266.106684-1.170662 22.684652-9.597589 34.026978-25.302269 34.026978-15.130605 0-23.556509-11.342326-25.302269-34.026978-4.078899-48.273447-9.895371-136.979768-17.449417-266.106684-1.744737-36.059264-2.617617-60.775178-2.617617-74.161047C462.125079 249.080915 466.188628 237.153258 474.339262 227.843218zM549.373189 784.484951c-10.469446 11.054777-23.273053 16.57756-38.389332 16.57756-15.70468 0-28.508287-5.52176-38.389332-16.57756-10.469446-9.884115-15.70468-22.385846-15.70468-37.516452 0-14.534018 5.235235-27.334555 15.70468-38.389332 9.881045-10.469446 22.684652-15.70468 38.389332-15.70468 15.115256 0 27.918863 5.235235 38.389332 15.70468 9.881045 11.054777 14.8318 23.855314 14.8318 38.389332C564.204989 762.099105 559.25321 774.600837 549.373189 784.484951z" p-id="2076" fill="#d81e06"></path></svg>