<?xml version="1.0" standalone="no"?><!DOCTYPE svg PUBLIC "-//W3C//DTD SVG 1.1//EN" "http://www.w3.org/Graphics/SVG/1.1/DTD/svg11.dtd"><svg t="1490177876766" class="icon" style="" viewBox="0 0 1024 1024" version="1.1" xmlns="http://www.w3.org/2000/svg" p-id="3104" xmlns:xlink="http://www.w3.org/1999/xlink" width="16" height="16"><defs><style type="text/css"></style></defs><path d="M330.135464 540.731368l351.7349 0c48.583508 0 88.10564-40.47176 88.665389-90.435709l0-174.831864c-0.560772-49.963948-40.082904-90.435709-88.665389-90.435709L330.135464 185.028087c-48.627511 0-88.149643 40.47176-88.667435 90.435709l0 174.831864C241.985822 500.259608 281.508977 540.731368 330.135464 540.731368zM320.340377 259.737626l362.045733 0c9.751085 0 17.690918 7.874341 17.690918 17.668405 0 9.708106-7.939833 17.560958-17.690918 17.560958l-362.045733 0c-9.837042 0-17.733896-7.852852-17.733896-17.560958C302.607504 267.611967 310.503335 259.737626 320.340377 259.737626zM320.340377 350.259292l362.045733 0c9.751085 0 17.690918 7.874341 17.690918 17.560958 0 9.772574-7.939833 17.647939-17.690918 17.647939l-362.045733 0c-9.837042 0-17.733896-7.874341-17.733896-17.647939C302.607504 358.133633 310.503335 350.259292 320.340377 350.259292zM320.340377 440.696024l362.045733 0c9.751085 0 17.690918 7.895831 17.690918 17.603937 0 9.772574-7.939833 17.603937-17.690918 17.603937l-362.045733 0c-9.837042 0-17.733896-7.831362-17.733896-17.603937C302.607504 448.591855 310.503335 440.696024 320.340377 440.696024zM638.679679 797.478893l-336.502987-0.107447c-21.272489 0-34.604122 8.909927-47.376007 22.522969 0.344854 1.035586 0.603751 2.092661 0.905626 3.149736 11.262508 39.835264 38.530548 58.129932 77.44893 58.129932l285.245579-0.086981 0 0.086981 61.096497 0 0-0.086981c0 0 0 0.086981 0.042979 0.086981 39.004339 0 71.623247-18.294668 82.798774-58.129932 0.345877-1.100054 0.647753-2.201132 0.99363-3.364631-12.770861-13.506619-31.455409-22.308075-52.640917-22.308075L638.679679 797.478893zM850.358753 462.787158 809.756009 462.787158c-6.903224 66.446341-61.48433 118.52444-127.886669 118.52444L330.135464 581.311599c-66.533322 0-121.156384-52.29504-127.889739-118.52444l-28.605501 0c-59.543118 0-108.169605 48.690956-108.169605 108.169605l0 143.93825c0 59.499116 48.627511 108.148116 108.169605 108.148116l41.377386 0c13.807471-33.718963 50.352805-63.425541 93.586468-63.425541 0.085958 0 325.846276 0.042979 325.846276 0.042979l0-0.042979 69.855998 0 0 0.042979 0-0.042979c43.23264 0 85.257779 29.706579 99.021248 63.425541l47.031153 0c59.543118 0 108.168582-48.649 108.168582-108.148116L958.527334 570.956763C958.527334 511.478114 909.901871 462.787158 850.358753 462.787158zM721.694371 698.197726c-19.243273 0-34.947953-15.641235-34.947953-34.992979 0-19.330254 15.705704-34.884508 34.947953-34.884508 19.287275 0 34.904974 15.554254 34.904974 34.884508C756.599346 682.556491 740.980623 698.197726 721.694371 698.197726zM831.762209 698.197726c-19.24532 0-34.905998-15.641235-34.905998-34.992979 0-19.330254 15.661701-34.884508 34.905998-34.884508 19.330254 0 34.861996 15.554254 34.861996 34.884508C866.625228 682.556491 851.092463 698.197726 831.762209 698.197726z" p-id="3105" fill="#d81e06"></path></svg>