<?xml version="1.0" standalone="no"?><!DOCTYPE svg PUBLIC "-//W3C//DTD SVG 1.1//EN" "http://www.w3.org/Graphics/SVG/1.1/DTD/svg11.dtd"><svg t="1499668040701" class="icon" style="" viewBox="0 0 1024 1024" version="1.1" xmlns="http://www.w3.org/2000/svg" p-id="2243" xmlns:xlink="http://www.w3.org/1999/xlink" width="48" height="48"><defs><style type="text/css"></style></defs><path d="M1024 512c0 282.760533-229.239467 512-512 512s-512-229.239467-512-512 229.239467-512 512-512S1024 229.2224 1024 512zM433.527467 281.053867c-54.801067 0-107.1104 47.803733-107.1104 75.554133l0 81.595733c0 30.702933 13.8752 88.234667 46.2848 114.2272C382.805333 560.520533 388.164267 573.149867 387.0208 586.0352s-8.704 24.354133-20.0704 30.5152l-124.808533 67.6864c-0.8704 0.494933-1.774933 0.938667-2.679467 1.348267-3.054933 1.3824-6.912 3.7376-9.693867 5.751467l0 34.542933L638.088533 725.879467c0 0 2.030933-43.656533 0.955733-44.2368L501.418667 616.8064c-11.400533-6.229333-18.8928-17.749333-20.002133-30.702933-1.0752-12.9536 4.420267-25.565867 14.609067-33.621333 33.348267-26.231467 42.752-84.036267 42.752-114.295467l0-81.595733C538.7776 328.174933 489.3696 281.053867 433.527467 281.053867M822.340267 549.546667l-93.866667 0 0-95.709867c0-14.1312-11.4688-25.6-25.6-25.6s-25.6 11.4688-25.6 25.6l0 95.709867-93.866667 0c-14.1312 0-25.6 11.4688-25.6 25.6s11.4688 25.6 25.6 25.6l93.866667 0 0 92.023467c0 14.1312 11.4688 25.6 25.6 25.6s25.6-11.4688 25.6-25.6L728.4736 600.746667l93.866667 0c14.1312 0 25.6-11.4688 25.6-25.6S836.471467 549.546667 822.340267 549.546667z" p-id="2244" fill="#cdcdcd"></path></svg>