<?xml version="1.0" standalone="no"?><!DOCTYPE svg PUBLIC "-//W3C//DTD SVG 1.1//EN" "http://www.w3.org/Graphics/SVG/1.1/DTD/svg11.dtd"><svg t="1499670661715" class="icon" style="" viewBox="0 0 1000 1000" version="1.1" xmlns="http://www.w3.org/2000/svg" p-id="2397" xmlns:xlink="http://www.w3.org/1999/xlink" width="48" height="48"><defs><style type="text/css"></style></defs><path d="M407.117 664.986h293.791v22.826h-293.791v-22.827zM407.117 448.627h120.038v20.193h-120.038v-20.193zM407.117 613.381h293.791v24.819h-293.791v-24.819zM407.117 400.993h120.038v20.836h-120.038v-20.836zM407.117 348.394h120.038v25.802h-120.038v-25.802zM407.117 565.737h293.791v20.848h-293.791v-20.848zM506.371 45.55c-234.688 0-424.927 190.243-424.927 424.909s190.239 424.909 424.927 424.909c234.676 0 424.927-190.243 424.927-424.909s-190.251-424.909-424.927-424.909zM313.82 638.203h-45.655v-428.763h383.117v45.655h-337.462v383.108zM744.573 348.394v383.094h-381.125v-426.77h381.125v43.675zM553.954 348.394h146.955v142.912h-146.955v-142.912zM407.117 518.105h293.791v20.848h-293.791v-20.848z" p-id="2398" fill="#cdcdcd"></path></svg>