<?xml version="1.0" standalone="no"?><!DOCTYPE svg PUBLIC "-//W3C//DTD SVG 1.1//EN" "http://www.w3.org/Graphics/SVG/1.1/DTD/svg11.dtd"><svg t="1499756349757" class="icon" style="" viewBox="0 0 1024 1024" version="1.1" xmlns="http://www.w3.org/2000/svg" p-id="2765" xmlns:xlink="http://www.w3.org/1999/xlink" width="32" height="32"><defs><style type="text/css"></style></defs><path d="M512 64.094784c-247.37097 0-447.905216 200.524013-447.905216 447.905216S264.628006 959.905216 512 959.905216c247.37711 0 447.905216-200.524013 447.905216-447.905216S759.37711 64.094784 512 64.094784zM735.952608 623.977327c0 53.007261-42.971697 95.977935-95.979982 95.977935l-63.986313 0-63.986313 63.986313-63.986313-63.986313-63.986313 0c-53.008284 0-95.979982-42.970674-95.979982-95.977935L288.047392 400.024719c0-53.008284 42.971697-95.979982 95.979982-95.979982l255.946276 0c53.008284 0 95.979982 42.971697 95.979982 95.979982L735.953631 623.977327z" p-id="2766" fill="#cdcdcd"></path><path d="M639.972627 336.038406 384.027373 336.038406c-35.282574 0-63.986313 28.703739-63.986313 63.986313l0 223.952608c0 35.281551 28.703739 63.984267 63.986313 63.984267l63.986313 0c8.485255 0 16.622586 3.370771 22.62223 9.371438l41.364083 41.36306 41.364083-41.36306c5.999644-6.000668 14.136975-9.371438 22.62223-9.371438l63.986313 0c35.282574 0 63.986313-28.702716 63.986313-63.984267L703.95894 400.024719C703.95894 364.742145 675.255201 336.038406 639.972627 336.038406zM416.020018 543.992645c-17.669428 0-31.993668-14.32424-31.993668-31.993668s14.32424-31.993668 31.993668-31.993668c17.670451 0 31.993668 14.32424 31.993668 31.993668S433.69047 543.992645 416.020018 543.992645zM512 543.992645c-17.669428 0-31.993668-14.32424-31.993668-31.993668s14.32424-31.993668 31.993668-31.993668c17.670451 0 31.993668 14.32424 31.993668 31.993668S529.669428 543.992645 512 543.992645zM607.979982 543.992645c-17.669428 0-31.993668-14.32424-31.993668-31.993668s14.32424-31.993668 31.993668-31.993668c17.670451 0 31.993668 14.32424 31.993668 31.993668S625.64941 543.992645 607.979982 543.992645z" p-id="2767" fill="#cdcdcd"></path></svg>