<?xml version="1.0" standalone="no"?><!DOCTYPE svg PUBLIC "-//W3C//DTD SVG 1.1//EN" "http://www.w3.org/Graphics/SVG/1.1/DTD/svg11.dtd"><svg t="1490177571142" class="icon" style="" viewBox="0 0 1024 1024" version="1.1" xmlns="http://www.w3.org/2000/svg" p-id="1547" xmlns:xlink="http://www.w3.org/1999/xlink" width="16" height="16"><defs><style type="text/css"></style></defs><path d="M680.990832 398.122393c12.611226 14.703887 26.126031 29.710672 40.547485 45.017286 12.014638 13.539364 25.38618 28.547173 40.11258 45.022403 14.727423 16.47523 29.892821 33.241079 45.50745 50.299593 19.819394 22.37152 36.189224 42.377156 49.111534 60.021002 12.917194 17.639752 23.137976 33.824363 30.652114 48.546669 7.519254 14.728446 12.621459 28.262694 15.313777 40.614 2.692319 12.351306 4.048199 24.712845 4.067642 37.084617l0 57.364499c0 17.658172-3.012613 33.555234-9.028631 47.673789-6.019087 14.122649-14.273075 26.329668-24.77015 36.629245-10.496052 10.304693-22.51683 18.247596-36.050054 23.839965-13.534248 5.591345-27.798113 8.387018-42.796712 8.387018L237.628072 898.622478c-16.225543 0-31.691793-2.641153-46.39875-7.933693-14.70798-5.293563-27.625174-12.796444-38.757722-22.511713-11.133571-9.716292-19.99745-21.332864-26.590612-34.853809-6.596232-13.519921-9.900487-28.817326-9.918907-45.895283l0-67.953671c0-14.119579 1.355881-27.658943 4.061502-40.614 2.712785-12.955056 7.67275-26.489304 14.885012-40.612976 7.208169-14.119579 17.118889-29.271674 29.730115-45.442982 12.611226-16.176424 28.532847-33.978882 47.755654-53.40942 15.628956-16.47523 31.702026-33.099862 48.218188-49.874921 16.512069-16.780175 31.386848-31.928177 44.61001-45.448098 15.628956-15.891945 30.65723-31.18935 45.073568-45.89119L681.045067 398.180721 680.990832 398.122393 680.990832 398.122393zM511.563048 732.608443c15.628956 0 30.346145-2.946099 44.151569-8.840342 13.804401-5.891174 25.820062-13.840216 36.050054-23.839965 10.225899-9.995655 18.34174-21.912056 24.337291-35.755342 6.000668-13.840216 9.007141-28.402887 9.026584-43.690058 0.020466-15.287171-2.987031-29.700439-9.026584-43.240827-6.03546-13.539364-14.150278-25.306362-24.337291-35.30611-10.191106-9.995655-22.205745-17.943674-36.050054-23.833825-13.840216-5.89629-28.556383-8.842389-44.151569-8.842389-15.589047 0-30.458709 2.946099-44.608987 8.842389-14.150278 5.89015-26.323529 13.83817-36.509519 23.833825-10.191106 10.000771-18.306948 21.766746-24.341385 35.30611-6.034437 13.540388-9.04705 27.948539-9.028631 43.240827 0.020466 15.287171 3.027963 29.854958 9.028631 43.690058 5.995551 13.843286 14.109346 25.759687 24.341385 35.755342 10.224876 10.000771 22.398126 17.948791 36.509519 23.839965C481.06443 729.663368 495.935116 732.608443 511.563048 732.608443L511.563048 732.608443zM963.054953 291.307645l0 55.611575c0 15.306614-5.556553 28.253484-16.669658 38.832424-11.112082 10.585079-24.483624 15.881712-40.11258 15.901155L793.634332 401.652799c-15.635095 0-28.852118-5.302773-39.655162-15.901155-10.80816-10.598382-16.216333-23.544229-16.234753-38.832424L737.744417 291.307645 286.251489 291.307645l0 55.611575c0 15.306614-5.41329 28.253484-16.236799 38.832424-10.821463 10.585079-24.039509 15.881712-39.655162 15.901155L117.722168 401.652799c-15.628956 0-28.999474-5.302773-40.11258-15.901155-11.113105-10.598382-16.669658-23.544229-16.669658-38.832424l0-57.364499c0-7.059789 1.810229-13.095249 5.423523-18.10331 3.613294-5.01113 8.119935-9.564843 13.524015-13.669324 5.403057-4.104481 11.408841-7.789407 18.025539-11.04352 6.611581-3.258207 13.224186-6.938016 19.839861-11.042497 6.611581-3.540639 21.48636-11.338233 44.608987-23.385617 23.12979-12.0525 52.267411-24.554232 87.410815-37.509289 35.143405-12.95608 75.094302-24.433482 119.851669-34.429137 44.757367-9.998725 92.370781-14.996552 142.837172-14.996552 57.676607 0 109.192911 4.997827 154.542772 14.996552 45.353954 9.995655 84.708264 21.473057 118.067023 34.429137 33.354666 12.955056 60.08547 25.456788 80.196507 37.509289 20.110013 12.047384 33.778314 19.844977 41.010019 23.385617 7.208169 4.123924 14.121626 7.80271 20.732184 11.042497 6.616698 3.234671 12.621459 6.919597 18.024515 11.04352 5.403057 4.123924 9.758248 8.676613 13.06148 13.669324 3.308349 4.988618 4.958942 11.024078 4.964058 18.10331l0 1.77646 0-0.023536L963.054953 291.307645z" p-id="1548" fill="#d81e06"></path></svg>