<?xml version="1.0" standalone="no"?><!DOCTYPE svg PUBLIC "-//W3C//DTD SVG 1.1//EN" "http://www.w3.org/Graphics/SVG/1.1/DTD/svg11.dtd"><svg t="1489465011823" class="icon" style="" viewBox="0 0 1024 1024" version="1.1" xmlns="http://www.w3.org/2000/svg" p-id="1546" xmlns:xlink="http://www.w3.org/1999/xlink" width="32" height="32"><defs><style type="text/css"></style></defs><path d="M511.924787 66.769706c-245.889223 0-445.225177 199.335954-445.225177 445.235411 0 245.889223 199.335954 445.225177 445.225177 445.225177 245.908666 0 445.24462-199.335954 445.24462-445.225177 0.001023-245.899456-199.335954-445.23541-445.24462-445.235411z m314.53465 297.723775l-378.571105 378.572129c-12.345166 12.344143-32.370245 12.344143-44.733831 0L236.226654 576.136739c-12.325723-12.344143-12.325723-32.387641 0-44.713364 12.344143-12.364609 32.369222-12.364609 44.714388 0l144.590096 144.562467 356.214934-356.225168c12.344143-12.325723 32.368198-12.325723 44.713365 0 12.344143 12.345166 12.344143 32.369222 0 44.732807z" fill="#32ae62" p-id="1547"></path></svg>