<?xml version="1.0" standalone="no"?><!DOCTYPE svg PUBLIC "-//W3C//DTD SVG 1.1//EN" "http://www.w3.org/Graphics/SVG/1.1/DTD/svg11.dtd"><svg t="1490084565813" class="icon" style="" viewBox="0 0 1024 1024" version="1.1" xmlns="http://www.w3.org/2000/svg" p-id="1549" xmlns:xlink="http://www.w3.org/1999/xlink" width="16" height="16"><defs><style type="text/css"></style></defs><path d="M512 1024c282.784 0 512-229.216 512-512s-229.216-512-512-512c-282.784 0-512 229.216-512 512s229.216 512 512 512zM323.488 700.704l452.544-379.712c16.672-13.984 41.44-11.936 55.52 4.832 13.984 16.672 11.904 41.44-4.896 55.52l-422.336 354.368c-16.672 13.984-41.44 11.936-55.52-4.832l-25.312-30.176zM227.104 524.544c16.672-13.984 41.408-11.936 55.488 4.864l101.28 120.672-60.352 50.624-101.28-120.672c-13.984-16.672-11.904-41.408 4.864-55.488z" fill="#32ae62" p-id="1550"></path></svg>